PathFileType	4	(X/Y/Z)	./resultDataOpenSim/trcMotMarkerGrf/sub09/qtm-02-05.trc
DataRate	CameraRate	NumFrames	NumMarkers	Units	OrigDataRate	OrigDataStartFrame	OrigNumFrames
250.000000	250.000000	7	24	m	250.000000	412	470
Frame#	Time	L.Toe.Tip			R.Toe.Tip			L.Ankle.Lat			R.Ankle.Lat			L.Ankle.Med			R.Ankle.Med			L.Heel			R.Heel			L.Knee.Lat			R.Knee.Lat			L.Knee.Med			R.Knee.Med			L.Thigh.Upper			R.Thigh.Upper			L.ASIS			R.ASIS			V.Sacral			L.Acromium			R.Acromium			C7			L.Elbow			R.Elbow			L.Wrist.Lat			R.Wrist.Lat
		X1	Y1	Z1	X2	Y2	Z2	X3	Y3	Z3	X4	Y4	Z4	X5	Y5	Z5	X6	Y6	Z6	X7	Y7	Z7	X8	Y8	Z8	X9	Y9	Z9	X10	Y10	Z10	X11	Y11	Z11	X12	Y12	Z12	X13	Y13	Z13	X14	Y14	Z14	X15	Y15	Z15	X16	Y16	Z16	X17	Y17	Z17	X18	Y18	Z18	X19	Y19	Z19	X20	Y20	Z20	X21	Y21	Z21	X22	Y22	Z22	X23	Y23	Z23	X24	Y24	Z24

412	1.644	1.6801291	0.14528154	0.026260699	1.0127006	0.038929083	0.13626117	1.5288946	0.10271726	0.002367006	0.86724619	0.072445588	0.16684597	1.550628	0.13433558	0.092328591	0.88986602	0.11151445	0.077943898	1.4898867	0.038429675	0.054450476	0.79860937	0.06482457	0.11402846	1.3649888	0.48674963	-0.035467567	1.0788269	0.48872354	0.23618387	1.3679788	0.47983456	0.091975268	1.0553732	0.48386826	0.1141188	1.1860443	0.86217498	-0.07010603	1.1223854	0.88714313	0.29531219	1.2536251	0.95583519	-0.0053788299	1.2388605	0.96716637	0.23448687	1.0764587	1.009381	0.093908167	1.2066037	1.4130913	-0.070012689	1.1987696	1.4307963	0.26120449	1.135387	1.4667593	0.095997079	1.041137	1.0875803	-0.12144973	1.0989098	1.0759488	0.3651389	1.1246033	0.84600161	-0.18314796	1.3095911	0.89576877	0.35311664
413	1.648	1.6871898	0.1447524	0.027451988	1.0127556	0.038960877	0.1363599	1.5361625	0.10216243	0.0032547749	0.86772815	0.073477386	0.16728858	1.5577424	0.13404704	0.093187878	0.89049307	0.11245764	0.078478111	1.4971259	0.037951349	0.055672392	0.79894328	0.066456833	0.11453957	1.372061	0.48619962	-0.035257629	1.0829943	0.48799169	0.23625919	1.3749468	0.47930372	0.092147443	1.0597037	0.48326447	0.11431546	1.1925973	0.86069331	-0.070278908	1.1278709	0.88616547	0.29491649	1.2595759	0.954596	-0.0056257635	1.244899	0.96604104	0.2343144	1.0823309	1.0081239	0.093333088	1.2123082	1.4119337	-0.070244857	1.2043921	1.4295593	0.26101315	1.1410086	1.4655604	0.095738129	1.0466584	1.0862502	-0.12189379	1.1047261	1.0746215	0.36483094	1.1300619	0.84479372	-0.18337167	1.3155066	0.89454066	0.3532942
414	1.652	1.6935469	0.14353459	0.028731682	1.0128136	0.038998561	0.13648807	1.5427406	0.10132019	0.0040634517	0.86824562	0.074564882	0.16776202	1.5642978	0.13340889	0.094112576	0.89118871	0.11345961	0.079023791	1.5035055	0.037278628	0.057140747	0.7993218	0.068182276	0.1150859	1.3793833	0.48578317	-0.035039869	1.086683	0.48714981	0.23647813	1.3822378	0.47893093	0.092313829	1.0642731	0.48271205	0.114563	1.1991021	0.85928416	-0.070508651	1.1334855	0.88518921	0.29458264	1.2655642	0.95336704	-0.0058878115	1.2508265	0.96496515	0.23416028	1.0882454	1.0068905	0.092758026	1.2180239	1.410789	-0.070501912	1.2100336	1.4283241	0.26081595	1.1466687	1.4643762	0.095475738	1.052326	1.0849953	-0.12213841	1.1105011	1.0732887	0.36447822	1.1355921	0.84359683	-0.18361962	1.3213827	0.89329242	0.35349792
415	1.656	1.6993043	0.1416709	0.030043891	1.012882	0.039038194	0.13662624	1.5486434	0.10020944	0.0048191773	0.86880556	0.075711756	0.16826545	1.5702939	0.13243379	0.095073338	0.89194582	0.11452151	0.079572017	1.509081	0.03639536	0.058806493	0.79974607	0.0700011	0.11567807	1.3868797	0.48550138	-0.034794624	1.089144	0.48613056	0.23703781	1.3897788	0.47871482	0.092500545	1.0690514	0.48216823	0.11482896	1.2055369	0.85798771	-0.070798552	1.1391609	0.88421435	0.29423382	1.2715971	0.95216568	-0.0061597577	1.2567461	0.96390319	0.23400869	1.0942049	1.0056765	0.092207188	1.223751	1.4096586	-0.070779282	1.2157002	1.4270949	0.26061323	1.1523757	1.4632313	0.095217609	1.0581523	1.0838136	-0.12216036	1.1161918	1.0719477	0.36406404	1.141192	0.84241147	-0.18388374	1.3272169	0.8920279	0.3537259
416	1.66	1.7045499	0.13921449	0.031352775	1.012974	0.039070114	0.13671571	1.5538895	0.098839574	0.0055866336	0.86941953	0.076926524	0.16879049	1.5757107	0.13114163	0.096047494	0.8927668	0.11564181	0.080121325	1.5138886	0.035328493	0.060495444	0.80021763	0.071913769	0.11631304	1.3944476	0.48534709	-0.034513998	1.0895408	0.48488239	0.23813683	1.3975106	0.47864548	0.092726025	1.0739814	0.48153262	0.11506302	1.2118897	0.85683857	-0.071151579	1.1449083	0.88323388	0.29385319	1.2776803	0.95101533	-0.0064400059	1.262523	0.96285111	0.23386602	1.1002193	1.0044845	0.091705445	1.2294913	1.4085443	-0.071066998	1.2213894	1.425877	0.26040559	1.1581038	1.4621322	0.094957104	1.0640564	1.0826597	-0.12209807	1.1217517	1.0705997	0.36357374	1.1468618	0.84123959	-0.18416085	1.3330071	0.89075164	0.35397543
417	1.664	1.709348	0.13624324	0.032634121	1.0131033	0.039085136	0.13668007	1.5585124	0.097227808	0.0064211669	0.87010486	0.078222367	0.16932749	1.5805314	0.129554	0.097024336	0.89366511	0.11681531	0.080676486	1.5179523	0.034132289	0.061965287	0.80074443	0.07393015	0.11697633	1.4020194	0.48530267	-0.034205746	1.0878867	0.48344539	0.23977305	1.4053659	0.47869675	0.092993188	1.079024	0.48072996	0.11523658	1.2181547	0.85586051	-0.071569672	1.1507739	0.88223836	0.29344814	1.2838193	0.94994303	-0.0067381798	1.2679092	0.96182844	0.23375042	1.1062959	1.0033186	0.091267288	1.2352458	1.4074505	-0.071360252	1.2270939	1.4246751	0.26019315	1.163824	1.4610678	0.094678444	1.0699459	1.0814916	-0.12210791	1.1271941	1.0692566	0.36301591	1.1526037	0.84008591	-0.18445963	1.3387545	0.88946712	0.35424372
418	1.668	1.7137257	0.13283905	0.033909047	1.0132769	0.039090038	0.13649786	1.5625776	0.095416621	0.0073111776	0.87087724	0.079613043	0.16987375	1.5847657	0.12769894	0.097996725	0.89465084	0.11804362	0.081242474	1.5213145	0.032846184	0.063063008	0.80134191	0.076069638	0.11764602	1.409595	0.48531611	-0.033879771	1.0857756	0.48199582	0.24160948	1.413266	0.47882958	0.093290319	1.0841856	0.47977161	0.11536674	1.2243209	0.8550622	-0.072047328	1.1567619	0.88122268	0.29302544	1.2900188	0.94897018	-0.0070723877	1.2728847	0.96084318	0.2336602	1.1124316	1.0021744	0.09089005	1.2410121	1.4063851	-0.071663582	1.232818	1.4234936	0.25997165	1.1695371	1.4600278	0.094368403	1.0758146	1.0803159	-0.12220799	1.1326163	1.0679393	0.36242808	1.1584198	0.83895777	-0.18478331	1.3444614	0.8881761	0.35452816
